<svg xmlns="http://www.w3.org/2000/svg" viewBox="0 0 400 100" width="800" height="200" fill="none" shape-rendering="geometricPrecision">
  <defs>
    <linearGradient id="l_p1" x1="0%" y1="0%" x2="100%" y2="100%">
      <stop offset="0%" stop-color="#38BDF8" />
      <stop offset="50%" stop-color="#2563EB" />
      <stop offset="100%" stop-color="#1D4ED8" />
    </linearGradient>
    <linearGradient id="l_p2" x1="0%" y1="100%" x2="100%" y2="0%">
      <stop offset="0%" stop-color="#EA580C" />
      <stop offset="45%" stop-color="#F97316" />
      <stop offset="100%" stop-color="#FBBF24" />
    </linearGradient>
    <linearGradient id="l_p3" x1="0%" y1="0%" x2="100%" y2="100%">
      <stop offset="0%" stop-color="#2563EB" />
      <stop offset="60%" stop-color="#1D4ED8" />
      <stop offset="100%" stop-color="#0F172A" />
    </linearGradient>
    <linearGradient id="mexa_grad" x1="0%" y1="0%" x2="100%" y2="0%">
      <stop offset="0%" stop-color="#F97316" />
      <stop offset="50%" stop-color="#F59E0B" />
      <stop offset="100%" stop-color="#FB923C" />
    </linearGradient>
  </defs>
  
  <rect width="400" height="100" rx="16" fill="#080E1A" />

  <!-- Logo Mark -->
  <g transform="translate(24, 18) scale(0.64)">
    <rect x="16" y="16" width="17" height="68" rx="8.5" fill="url(#l_p1)" />
    <rect x="67" y="16" width="17" height="68" rx="8.5" fill="url(#l_p3)" />
    <path d="M 16,24.5 L 75,82.5 C 80,87.5 84,85 84,78 L 84,62 L 25,14.5 C 20.5,10.5 16,13.5 16,19.5 Z" fill="url(#l_p2)" />
    <path d="M 75.5,21.5 L 78.5,28.5 L 85.5,31.5 L 78.5,34.5 L 75.5,41.5 L 72.5,34.5 L 65.5,31.5 L 72.5,28.5 Z" fill="#FBBF24" />
    <circle cx="75.5" cy="31.5" r="2.2" fill="#FFFFFF" />
  </g>

  <!-- Typography Wordmark -->
  <g transform="translate(102, 60)">
    <text font-family="system-ui, -apple-system, BlinkMacSystemFont, 'Segoe UI', Roboto, sans-serif" font-size="36" font-weight="900" letter-spacing="2" fill="#FFFFFF">NOOR<tspan fill="url(#mexa_grad)">MEXA</tspan></text>
    <text x="2" y="18" font-family="system-ui, -apple-system, sans-serif" font-size="10" font-weight="700" letter-spacing="3" fill="#64748B">GLOBAL SMART COMMERCE</text>
  </g>
</svg>