<svg xmlns="http://www.w3.org/2000/svg" viewBox="0 0 180 180" fill="none" role="img" aria-label="NOORMEXA">
  <path d="M28 139V58C28 46 35 37 47 31L59 26V108C59 121 55 131 48 140L43 146C37 153 28 148 28 139Z" fill="currentColor"/>
  <path d="M117 74C117 61 123 51 132 42L142 32C151 23 159 28 159 41V130C159 145 150 152 136 152H117V74Z" fill="currentColor"/>
  <path d="M44 35C53 28 64 29 73 38L143 108C153 118 154 130 146 138C138 146 126 145 117 136L45 66C36 57 35 43 44 35Z" fill="currentColor"/>
</svg>